<svg width="155" height="155" viewBox="0 0 155 155" fill="none" xmlns="http://www.w3.org/2000/svg">
<rect width="155" height="155" fill="black"/>
<path d="M52.088 106.96C47.608 106.96 43.672 106.128 40.28 104.464C36.952 102.736 34.36 100.336 32.504 97.264C30.648 94.128 29.72 90.448 29.72 86.224V72.976C29.72 68.688 30.648 65.008 32.504 61.936C34.36 58.864 36.952 56.496 40.28 54.832C43.672 53.104 47.608 52.24 52.088 52.24C58.744 52.24 64.056 53.968 68.024 57.424C71.992 60.816 74.072 65.456 74.264 71.344H62.264C62.072 68.592 61.08 66.48 59.288 65.008C57.56 63.472 55.16 62.704 52.088 62.704C48.888 62.704 46.36 63.6 44.504 65.392C42.648 67.12 41.72 69.616 41.72 72.88V86.224C41.72 89.488 42.648 92.016 44.504 93.808C46.36 95.6 48.888 96.496 52.088 96.496C55.16 96.496 57.56 95.76 59.288 94.288C61.08 92.752 62.072 90.608 62.264 87.856H74.264C74.072 93.744 71.992 98.416 68.024 101.872C64.056 105.264 58.744 106.96 52.088 106.96ZM82.8665 106V53.2H94.1945V63.28H97.1705L93.6185 69.424C93.6185 63.728 94.8985 59.44 97.4585 56.56C100.018 53.68 103.795 52.24 108.787 52.24C114.483 52.24 118.962 54 122.226 57.52C125.49 61.04 127.122 65.904 127.122 72.112V75.952H114.547V72.976C114.547 69.584 113.651 66.96 111.859 65.104C110.131 63.248 107.731 62.32 104.658 62.32C101.523 62.32 99.0905 63.248 97.3625 65.104C95.6985 66.96 94.8665 69.584 94.8665 72.976V106H82.8665Z" fill="white"/>
</svg>
